<svg width="32" height="32" viewBox="0 0 32 32" fill="none" xmlns="http://www.w3.org/2000/svg">
<path d="M5.79066 25.2434C7.37258 24.128 8.99098 23.2584 10.6459 22.6345C12.3008 22.0105 14.0855 21.6985 16 21.6985C17.9146 21.6985 19.7021 22.0105 21.3627 22.6345C23.0234 23.2584 24.6446 24.128 26.2265 25.2434C27.3796 23.9279 28.2534 22.5002 28.8478 20.9604C29.4422 19.4206 29.7394 17.7671 29.7394 15.9998C29.7394 12.1472 28.4126 8.89421 25.7591 6.24071C23.1056 3.58721 19.8526 2.26046 16 2.26046C12.1475 2.26046 8.89446 3.58721 6.24096 6.24071C3.58746 8.89421 2.26071 12.1472 2.26071 15.9998C2.26071 17.7671 2.56075 19.4206 3.16083 20.9604C3.76091 22.5002 4.63753 23.9279 5.79066 25.2434ZM15.9942 17.0468C14.4881 17.0468 13.2201 16.5299 12.1902 15.496C11.1603 14.4622 10.6454 13.1923 10.6454 11.6863C10.6454 10.1802 11.1623 8.91221 12.1961 7.8823C13.2299 6.85238 14.4999 6.33742 16.0059 6.33742C17.512 6.33742 18.7799 6.85434 19.8098 7.88817C20.8397 8.92198 21.3547 10.1919 21.3547 11.698C21.3547 13.204 20.8378 14.472 19.804 15.5019C18.7702 16.5318 17.5002 17.0468 15.9942 17.0468ZM16.013 31.8331C13.8171 31.8331 11.757 31.4196 9.83271 30.5927C7.90848 29.7658 6.2299 28.6351 4.79696 27.2006C3.36401 25.7661 2.23408 24.0897 1.40716 22.1713C0.58022 20.253 0.166748 18.1951 0.166748 15.9978C0.166748 13.8004 0.58022 11.7432 1.40716 9.82621C2.23408 7.90918 3.36478 6.23345 4.79925 4.79901C6.23369 3.36453 7.91011 2.23384 9.8285 1.40692C11.7469 0.579977 13.8047 0.166504 16.0021 0.166504C18.1994 0.166504 20.2566 0.579977 22.1736 1.40692C24.0907 2.23384 25.7664 3.36453 27.2008 4.79901C28.6353 6.23345 29.766 7.90948 30.5929 9.82709C31.4199 11.7447 31.8333 13.7979 31.8333 15.9868C31.8333 18.1828 31.4199 20.2429 30.5929 22.1671C29.766 24.0914 28.6353 25.7699 27.2008 27.2029C25.7664 28.6358 24.0904 29.7658 22.1728 30.5927C20.2551 31.4196 18.2019 31.8331 16.013 31.8331ZM16 29.7391C17.5342 29.7391 19.0362 29.4943 20.5059 29.0046C21.9757 28.5149 23.3348 27.7583 24.5834 26.7348C23.3348 25.8032 21.9871 25.0799 20.5401 24.5649C19.0932 24.05 17.5798 23.7925 16 23.7925C14.4203 23.7925 12.9042 24.0473 11.452 24.5569C9.99965 25.0665 8.65812 25.7925 7.42737 26.7348C8.66882 27.7583 10.0244 28.5149 11.4942 29.0046C12.9639 29.4943 14.4658 29.7391 16 29.7391ZM16.0015 14.9528C16.9422 14.9528 17.7205 14.6443 18.3366 14.0272C18.9527 13.4101 19.2607 12.6312 19.2607 11.6906C19.2607 10.75 18.9522 9.97166 18.3351 9.35555C17.718 8.73944 16.9391 8.43138 15.9985 8.43138C15.0579 8.43138 14.2796 8.73993 13.6635 9.35705C13.0474 9.97413 12.7393 10.753 12.7393 11.6936C12.7393 12.6342 13.0479 13.4126 13.665 14.0287C14.2821 14.6448 15.0609 14.9528 16.0015 14.9528Z" fill="white" fill-opacity="0.75"/>
</svg>
