<svg width="48" height="48" viewBox="0 0 48 48" fill="none" xmlns="http://www.w3.org/2000/svg">
<mask id="mask0_31_387" style="mask-type:alpha" maskUnits="userSpaceOnUse" x="0" y="0" width="48" height="48">
<rect width="48" height="48" fill="#D9D9D9"/>
</mask>
<g mask="url(#mask0_31_387)">
<path d="M18.9577 30.8959C15.5649 30.8959 12.6917 29.7196 10.3381 27.3671C7.98454 25.0145 6.80774 22.1645 6.80774 18.8171C6.80774 15.4697 7.98402 12.6197 10.3366 10.2671C12.6891 7.91456 15.5428 6.73828 18.8975 6.73828C22.2523 6.73828 25.1055 7.91456 27.4571 10.2671C29.8087 12.6197 30.9845 15.4699 30.9845 18.8176C30.9845 20.2186 30.7448 21.5825 30.2653 22.9094C29.7858 24.2363 29.0922 25.4382 28.1845 26.5151L40.3615 38.6113C40.5846 38.8196 40.6993 39.0928 40.7057 39.4309C40.7121 39.7691 40.5974 40.053 40.3615 40.2824C40.1256 40.5119 39.8418 40.6266 39.51 40.6266C39.1783 40.6266 38.9018 40.5087 38.6807 40.2728L26.5538 28.1459C25.5589 29.0263 24.3987 29.7048 23.0733 30.1812C21.7479 30.6577 20.3761 30.8959 18.9577 30.8959ZM18.9269 28.6267C21.6588 28.6267 23.9731 27.6748 25.87 25.7709C27.7669 23.8671 28.7154 21.5491 28.7154 18.8171C28.7154 16.085 27.7669 13.7671 25.87 11.8632C23.9731 9.9594 21.6588 9.00748 18.9269 9.00748C16.178 9.00748 13.8491 9.9594 11.9402 11.8632C10.0314 13.7671 9.07694 16.085 9.07694 18.8171C9.07694 21.5491 10.0314 23.8671 11.9402 25.7709C13.8491 27.6748 16.178 28.6267 18.9269 28.6267Z" fill="white" fill-opacity="0.75"/>
</g>
</svg>
